<svg width="208" height="206" viewBox="0 0 358 346" fill="none" xmlns="http://www.w3.org/2000/svg">
<ellipse cx="178.651" cy="172.585" rx="178.651" ry="172.585" fill="#448C2F"/>
<path d="M176.828 215.416L186.184 208.959C194.096 202.304 189.724 192.632 189.724 192.632C189.724 192.632 182.757 196.347 179.658 201.036C179.32 201.547 174.702 207.205 176.833 215.421L176.828 215.416Z" fill="#C79F18"/>
<path d="M178.947 197.726L185.341 192.347C192.463 186.357 188.836 177.476 188.836 177.476C188.836 177.476 180.815 181.765 178.689 186.613C178.689 186.613 176.512 190.984 178.941 197.726H178.947Z" fill="#C79F18"/>
<path d="M178.838 181.403L184.591 176.565C191.002 171.172 188.051 163.004 188.051 163.004C188.051 163.004 180.517 167.042 178.604 171.403C178.604 171.403 176.644 175.336 178.833 181.403H178.838Z" fill="#C79F18"/>
<path d="M175.854 143.544C179.813 138.85 179.074 135.009 179.074 135.009C178.851 132.359 175.831 128.349 175.831 128.349C174.874 129.573 172.886 132.518 172.628 135.009C172.628 135.009 171.895 138.826 175.82 143.505L175.854 143.544Z" fill="#C79F18"/>
<path d="M178.731 166.054L183.91 161.698C189.68 156.845 187.337 149.317 187.337 149.317C187.337 149.317 180.249 153.124 178.525 157.052C178.525 157.052 176.766 160.589 178.731 166.049V166.054Z" fill="#C79F18"/>
<path d="M179.073 152.026L183.731 148.108C188.922 143.742 185.037 136.788 185.037 136.788C185.037 136.788 180.431 140.387 178.878 143.925C178.878 143.925 177.291 147.11 179.067 152.026H179.073Z" fill="#C79F18"/>
<path d="M174.077 207.026L166.973 201.051C159.061 194.395 163.432 184.723 163.432 184.723C163.432 184.723 171.998 189.292 174.358 194.685C174.358 194.685 176.776 199.542 174.077 207.026Z" fill="#C79F18"/>
<path d="M174.208 188.844L167.814 183.466C160.692 177.475 164.319 168.594 164.319 168.594C164.319 168.594 172.34 172.883 174.466 177.731C174.466 177.731 176.643 182.102 174.214 188.839L174.208 188.844Z" fill="#C79F18"/>
<path d="M174.318 172.521L168.566 167.678C162.161 162.29 165.105 154.117 165.105 154.117C165.105 154.117 172.634 158.151 174.553 162.517C174.553 162.517 176.507 166.449 174.324 172.517L174.318 172.521Z" fill="#C79F18"/>
<path d="M174.427 157.172L169.247 152.816C163.484 147.963 167.912 140.436 167.912 140.436C167.912 140.436 172.914 144.243 174.639 148.17C174.639 148.17 176.398 151.708 174.433 157.168L174.427 157.172Z" fill="#C79F18"/>
<path d="M177.716 211.884C178.043 209.98 174.805 227.469 190.137 234.047" stroke="#C79F18" stroke-width="3.6" stroke-linecap="round" stroke-linejoin="round"/>
<path d="M186.442 128.735L221.289 64.5149" stroke="white" stroke-width="5" stroke-miterlimit="10"/>
<path d="M159.25 130.576L124.403 66.3558" stroke="white" stroke-width="5" stroke-miterlimit="10"/>
<path d="M191.231 215.951L226.078 280.171" stroke="white" stroke-width="5" stroke-miterlimit="10"/>
<path d="M164.039 214.11L129.192 278.33" stroke="white" stroke-width="5" stroke-miterlimit="10"/>
<path d="M71.7217 170.854H155.652" stroke="white" stroke-width="5" stroke-miterlimit="10"/>
<path d="M200.575 170.854H284.5" stroke="white" stroke-width="5" stroke-miterlimit="10"/>
<path d="M228.805 66.2643C237.428 66.2643 244.418 60.3848 244.418 53.1321C244.418 45.8795 237.428 40 228.805 40C220.182 40 213.192 45.8795 213.192 53.1321C213.192 60.3848 220.182 66.2643 228.805 66.2643Z" stroke="white" stroke-width="5" stroke-miterlimit="10"/>
<path d="M300.113 183.986C308.735 183.986 315.725 178.107 315.725 170.854C315.725 163.601 308.735 157.722 300.113 157.722C291.49 157.722 284.5 163.601 284.5 170.854C284.5 178.107 291.49 183.986 300.113 183.986Z" stroke="white" stroke-width="5" stroke-miterlimit="10"/>
<path d="M118.107 68.9437C126.729 68.9437 133.719 63.0643 133.719 55.8116C133.719 48.5589 126.729 42.6795 118.107 42.6795C109.484 42.6795 102.494 48.5589 102.494 55.8116C102.494 63.0643 109.484 68.9437 118.107 68.9437Z" stroke="white" stroke-width="5" stroke-miterlimit="10"/>
<path d="M56.6127 183.986C65.2353 183.986 72.2253 178.107 72.2253 170.854C72.2253 163.601 65.2353 157.722 56.6127 157.722C47.99 157.722 41 163.601 41 170.854C41 178.107 47.99 183.986 56.6127 183.986Z" stroke="white" stroke-width="5" stroke-miterlimit="10"/>
<path d="M232.259 304.696C240.882 304.696 247.872 298.816 247.872 291.564C247.872 284.311 240.882 278.431 232.259 278.431C223.637 278.431 216.646 284.311 216.646 291.564C216.646 298.816 223.637 304.696 232.259 304.696Z" stroke="white" stroke-width="5" stroke-miterlimit="10"/>
<path d="M123.24 302.435C131.862 302.435 138.852 296.556 138.852 289.303C138.852 282.051 131.862 276.171 123.24 276.171C114.617 276.171 107.627 282.051 107.627 289.303C107.627 296.556 114.617 302.435 123.24 302.435Z" stroke="white" stroke-width="5" stroke-miterlimit="10"/>
<path d="M146.542 195.937L77.8467 236.49" stroke="white" stroke-width="5" stroke-miterlimit="10"/>
<path d="M66.1068 256.552C74.7294 256.552 81.7195 250.673 81.7195 243.42C81.7195 236.168 74.7294 230.288 66.1068 230.288C57.4842 230.288 50.4941 236.168 50.4941 243.42C50.4941 250.673 57.4842 256.552 66.1068 256.552Z" stroke="white" stroke-width="5" stroke-miterlimit="10"/>
<path d="M206.156 195.938L274.852 236.49" stroke="white" stroke-width="5" stroke-miterlimit="10"/>
<path d="M286.591 256.552C295.214 256.552 302.204 250.673 302.204 243.42C302.204 236.168 295.214 230.288 286.591 230.288C277.969 230.288 270.979 236.168 270.979 243.42C270.979 250.673 277.969 256.552 286.591 256.552Z" stroke="white" stroke-width="5" stroke-miterlimit="10"/>
<path d="M145.63 149.418L76.9346 108.865" stroke="white" stroke-width="5" stroke-miterlimit="10"/>
<path d="M65.1947 115.068C73.8173 115.068 80.8074 109.188 80.8074 101.936C80.8074 94.6828 73.8173 88.8034 65.1947 88.8034C56.5721 88.8034 49.582 94.6828 49.582 101.936C49.582 109.188 56.5721 115.068 65.1947 115.068Z" stroke="white" stroke-width="5" stroke-miterlimit="10"/>
<path d="M205.24 149.418L273.936 108.865" stroke="white" stroke-width="5" stroke-miterlimit="10"/>
<path d="M285.675 115.068C294.298 115.068 301.288 109.188 301.288 101.936C301.288 94.6828 294.298 88.8034 285.675 88.8034C277.053 88.8034 270.062 94.6828 270.062 101.936C270.062 109.188 277.053 115.068 285.675 115.068Z" stroke="white" stroke-width="5" stroke-miterlimit="10"/>
</svg>
