<svg width="132" height="217" viewBox="0 0 132 217" fill="none" xmlns="http://www.w3.org/2000/svg">
<path d="M94.419 151.326C89.8815 148.977 82.9636 140.249 82.3623 139.513C77.3873 143.465 72.1517 147.078 66.6911 150.326C63.5057 152.254 60.2621 154.073 56.9571 155.881C58.5887 155.269 60.0878 154.7 60.2009 154.78C66.1169 153.332 78.3799 154.09 81.9524 159.85C82.5179 160.83 82.8706 161.919 82.9873 163.045C83.1041 164.172 82.9823 165.31 82.63 166.386C82.2776 167.462 81.7026 168.452 80.9424 169.291C80.1822 170.13 79.2538 170.8 78.2177 171.257C73.8852 173.357 68.1492 171.825 64.0965 169.753C60.0438 167.681 53.9697 160.307 52.4115 158.376L48.7673 160.42C42.6872 163.63 36.5843 166.824 30.7174 170.117C28.6207 171.285 26.6307 172.495 24.6924 173.776C26.1366 173.235 27.361 172.811 27.5323 172.763C33.4709 171.331 45.7113 172.072 49.2838 177.832C49.8528 178.815 50.2078 179.906 50.3255 181.036C50.4432 182.165 50.3209 183.307 49.9668 184.386C49.6127 185.465 49.0346 186.457 48.2705 187.297C47.5064 188.138 46.5735 188.807 45.5329 189.262C41.2166 191.339 35.4806 189.808 31.4278 187.736C27.3751 185.664 21.9023 179.026 20.0177 176.691C18.0083 178.024 15.9924 179.317 14.1058 180.669C12.8103 181.624 11.5343 182.455 10.3132 183.496C9.09216 184.538 7.85167 185.463 6.64028 186.443C4.4598 188.302 2.02408 190.424 -0.136979 192.4C-1.6229 193.764 -3.05386 195.1 -4.46871 196.413C-2.43341 195.235 1.61781 193.003 1.9926 192.86C7.62069 190.524 19.8669 189.391 24.2599 194.575C24.9645 195.461 25.4754 196.484 25.7595 197.58C26.0436 198.676 26.0946 199.819 25.9092 200.936C25.7238 202.052 25.3061 203.118 24.6832 204.063C24.0603 205.008 23.246 205.812 22.2929 206.423C18.3032 209.144 12.4155 208.495 8.15624 207.095C3.40895 205.518 -4.43582 198.281 -5.41843 197.409C-7.77975 199.618 -10.0473 201.791 -12.1502 203.876C-16.8243 208.465 -20.8846 212.672 -24.3602 216.203L-27.9801 213.62C-24.4076 209.953 -20.0727 205.601 -15.0561 200.915C-12.6625 198.661 -10.088 196.297 -7.38095 193.891C-9.24876 191.003 -10.9407 188.005 -12.4474 184.914C-17.8324 185.408 -23.2595 185.155 -28.575 184.164C-29.3462 187.303 -30.0302 190.367 -30.64 193.279C-31.8561 199.242 -32.9593 204.808 -33.7494 209.504L-37.686 206.695C-36.8409 202.448 -35.8957 197.726 -34.576 192.383C-33.8338 189.19 -32.969 185.777 -32.0557 182.296C-33.2579 181.779 -43.0308 177.436 -46.3894 173.673C-49.4279 170.275 -52.3411 165.123 -51.4185 160.385C-51.2295 159.272 -50.8097 158.21 -50.1859 157.269C-49.5622 156.328 -48.7483 155.527 -47.7968 154.92C-46.8453 154.312 -45.7771 153.91 -44.6611 153.739C-43.545 153.569 -42.4057 153.635 -41.3165 153.931C-34.808 155.911 -31.0396 167.617 -30.9406 173.699C-30.9211 174.054 -31.3076 177.945 -31.5717 180.421C-31.2103 179.005 -30.7939 177.56 -30.4325 176.145C-29.6547 173.284 -28.809 170.472 -27.8375 167.34C-27.3274 165.86 -26.8175 164.379 -26.3139 162.86C-25.8104 161.341 -25.1226 159.851 -24.5576 158.341C-23.1338 154.815 -21.5032 151.333 -19.795 147.839C-22.3253 147.126 -31.251 144.514 -34.7838 141.618C-38.3166 138.721 -41.9469 134.047 -41.732 129.248C-41.7204 128.115 -41.4692 126.996 -40.9947 125.967C-40.5202 124.937 -39.8333 124.019 -38.979 123.274C-38.1247 122.529 -37.1223 121.973 -36.038 121.642C-34.9535 121.312 -33.8116 121.215 -32.6871 121.357C-25.9302 122.319 -20.4268 133.316 -19.4231 139.326C-19.3583 139.714 -19.1048 144.096 -18.9877 146.468C-17.9415 144.38 -16.9178 142.275 -15.7876 140.213C-12.5422 134.229 -9.0738 128.268 -5.62806 122.29L-2.53763 116.81C-3.41663 116.559 -14.0097 113.748 -18.0693 110.441C-21.5633 107.538 -25.2324 102.871 -25.0175 98.0718C-25.005 96.9362 -24.7527 95.816 -24.2772 94.7845C-23.8017 93.753 -23.1137 92.8336 -22.2582 92.0864C-21.4027 91.3393 -20.3991 90.7813 -19.3131 90.449C-18.2271 90.1167 -17.0833 90.0176 -15.9565 90.1583C-9.21571 91.1428 -3.71231 102.14 -2.70856 108.15C-2.61471 108.593 -2.27648 114.913 -2.26623 116.526C0.00721331 112.478 2.24189 108.438 4.29236 104.368C7.06488 98.886 9.48908 93.2351 11.5505 87.4486C11.1304 87.3196 0.0460977 84.4313 -4.08786 81.0375C-7.58186 78.1345 -11.2671 73.4898 -11.0361 68.6681C-11.0245 67.5345 -10.7732 66.4162 -10.2987 65.3865C-9.82424 64.3568 -9.13727 63.4392 -8.28297 62.6939C-7.42867 61.9486 -6.42641 61.3925 -5.34201 61.0621C-4.25761 60.7317 -3.11564 60.6347 -1.99117 60.7771C4.76576 61.739 10.253 72.7586 11.2729 78.7461C11.3506 79.2114 11.7762 85.9361 11.6959 87.245L12.1059 86.2397C13.9829 80.3694 15.3442 74.3468 16.1744 68.2402C16.6838 64.8466 16.98 61.6084 17.1889 58.4445C15.04 58.1066 5.29712 56.4485 1.28948 53.9305C-2.71816 51.4124 -6.67142 47.1912 -7.01233 42.4054C-7.12337 41.2789 -6.99679 40.1416 -6.64076 39.067C-6.28474 37.9924 -5.70721 37.0044 -4.94549 36.1669C-4.18378 35.3294 -3.25483 34.661 -2.21875 34.205C-1.18267 33.749 -0.0624792 33.5156 1.06935 33.5197C7.79047 33.6705 14.5473 44.059 16.2264 49.9363C16.3169 50.24 16.8739 53.5746 17.2592 56.0013C17.3428 54.5923 17.4359 53.1218 17.4646 51.7419C17.7052 46.6196 17.487 41.8531 17.282 37.6425C17.1423 35.2544 17.0705 33.1539 16.8275 31.102C14.8817 29.7136 7.22483 23.8402 4.94862 19.7569C2.67242 15.6736 1.00641 10.1131 2.90491 5.72981C3.32354 4.67551 3.95916 3.72104 4.7705 2.92822C5.58183 2.1354 6.55073 1.52197 7.61435 1.12786C8.67796 0.733757 9.8125 0.567764 10.9443 0.640585C12.0761 0.713405 13.1799 1.02346 14.1839 1.55061C20.1242 4.90121 21.2689 17.1256 20.0754 23.1049C19.9431 23.6252 17.4932 31.5088 17.3122 31.3796L17.1991 31.2989C17.4001 33.2183 17.5882 35.2994 17.7473 37.5646C18.0072 41.7462 18.235 46.4513 18.2562 51.5895C18.2608 57.1738 17.9281 62.7533 17.2601 68.2976C16.5656 74.5071 15.3088 80.6408 13.5052 86.6233L13.3921 86.7818C14.5387 85.1749 17.7846 80.6259 18.0429 80.2638C22.1807 75.8047 32.8063 69.6223 38.9855 72.4945C39.9997 73.0006 40.8958 73.7149 41.6151 74.5909C42.3345 75.4669 42.8609 76.4848 43.1601 77.5782C43.4593 78.6717 43.5246 79.816 43.3516 80.9365C43.1786 82.057 42.7712 83.1285 42.156 84.0809C39.6791 88.2222 34.0573 90.1196 29.5369 90.617C24.4446 91.1502 13.8803 87.6766 13.0401 87.4186C11.0587 93.4585 8.68279 99.3618 5.92766 105.09C4.35516 108.443 2.63722 111.759 0.848233 115.128C1.8656 113.702 2.75374 112.457 2.88293 112.276C7.02069 107.817 17.6463 101.635 23.8255 104.507C24.8397 105.013 25.7358 105.727 26.4551 106.603C27.1745 107.479 27.7009 108.497 28.0001 109.591C28.2993 110.684 28.3646 111.829 28.1916 112.949C28.0186 114.07 27.6112 115.141 26.996 116.093C24.519 120.235 18.9134 122.109 14.393 122.607C9.87265 123.104 0.743388 120.347 -1.63833 119.57C-2.34232 120.843 -2.95909 122.043 -3.69538 123.362C-6.98923 129.413 -10.3284 135.433 -13.4122 141.43C-14.5133 143.547 -15.4917 145.684 -16.4926 147.804C-15.6045 146.559 -14.8778 145.541 -14.7324 145.337C-10.5947 140.878 0.0309018 134.696 6.21009 137.568C7.22433 138.074 8.12038 138.788 8.83972 139.664C9.55907 140.54 10.0855 141.558 10.3847 142.652C10.6839 143.745 10.7492 144.89 10.5762 146.01C10.4032 147.131 9.99572 148.202 9.3806 149.155C6.90362 153.296 1.29805 155.171 -3.22234 155.668C-7.74273 156.165 -15.993 153.66 -18.8336 152.76C-19.799 154.974 -20.7871 157.172 -21.5974 159.361C-22.1462 160.847 -22.7468 162.263 -23.2116 163.776C-23.6764 165.289 -24.1637 166.785 -24.635 168.259C-25.4127 171.12 -26.2648 174.132 -26.9231 176.873C-27.4491 178.854 -27.8717 180.738 -28.3655 182.674C-27.3257 180.547 -25.1589 176.458 -24.9328 176.141C-21.7705 171.819 -17.5455 168.386 -12.6671 166.177C-12.3808 165.655 -12.0338 165.169 -11.6335 164.728C-10.865 163.895 -9.92991 163.232 -8.88899 162.783C-7.84805 162.335 -6.7245 162.11 -5.59115 162.123C-4.4578 162.136 -3.34001 162.387 -2.31017 162.861C-1.28032 163.334 -0.361395 164.018 0.386909 164.869C4.73154 170.121 1.40733 181.957 -1.86741 187.169C-2.07734 187.463 -4.53537 190.525 -6.10835 192.442C-4.99713 191.459 -3.97309 190.55 -2.81341 189.499C-0.552187 187.527 1.76072 185.625 4.2481 183.575C5.46599 182.633 6.70004 181.67 7.97284 180.699C9.24564 179.729 10.6089 178.823 11.9431 177.863C15.0735 175.724 18.3235 173.706 21.7028 171.745C19.9766 169.762 13.8832 162.75 12.5569 158.388C11.2306 154.027 10.7633 148.126 13.5796 144.227C14.2057 143.276 15.0261 142.468 15.9868 141.856C16.9476 141.245 18.0268 140.844 19.1535 140.68C20.2803 140.516 21.4288 140.592 22.5237 140.904C23.6186 141.217 24.6349 141.757 25.5057 142.49C30.6062 147.018 29.1207 159.244 26.6604 164.797C26.4343 165.114 24.2836 168.942 23.0144 171.008C25.0497 169.83 27.0688 168.675 29.1333 167.552C35.1359 164.356 41.3195 161.288 47.4805 158.204C49.3716 157.277 51.24 156.333 53.0858 155.373C52.491 154.676 45.1984 146.33 43.6716 141.483C42.3453 137.121 41.8393 131.227 44.6782 127.344C45.3013 126.389 46.1204 125.578 47.081 124.964C48.0417 124.35 49.122 123.948 50.2501 123.783C51.3781 123.619 52.5282 123.697 53.6237 124.011C54.7193 124.326 55.7353 124.87 56.6043 125.608C61.7048 130.135 60.1966 142.345 57.7589 147.915C57.5005 148.277 54.3552 153.786 53.5026 155.124C57.6347 153.018 61.7861 150.788 65.6662 148.605C71.0038 145.557 76.1431 142.174 81.0533 138.476C80.7139 138.234 73.1659 129.433 71.5648 124.499C70.2385 120.137 69.755 114.26 72.5713 110.36C73.1974 109.409 74.0178 108.601 74.9785 107.99C75.9393 107.379 77.0185 106.978 78.1452 106.814C79.2719 106.649 80.4205 106.726 81.5154 107.038C82.6103 107.35 83.6266 107.89 84.4974 108.624C89.5979 113.151 88.1125 125.377 85.6521 130.931C85.3776 131.316 82.0028 137.241 81.3149 138.253C81.5087 137.982 81.9061 137.855 82.2065 137.626C87.0177 133.775 91.4798 129.507 95.5409 124.872C97.8278 122.337 99.853 119.786 101.778 117.231C100.181 115.785 92.9764 109.038 91.0943 104.69C89.2122 100.341 88.1666 94.677 90.4723 90.5843C91.0001 89.5823 91.7324 88.7023 92.6217 88.0011C93.5109 87.2999 94.5374 86.7932 95.6347 86.5138C96.7321 86.2344 97.8758 86.1884 98.9919 86.3789C100.108 86.5695 101.171 86.9922 102.114 87.6198C107.657 91.575 107.564 103.907 105.698 109.68C105.521 109.929 104.216 113.097 103.196 115.34C104.036 114.163 104.891 112.964 105.683 111.855C108.686 107.645 111.16 103.604 113.334 100.032C114.525 97.9789 115.604 96.0845 116.563 94.3097C115.732 92.0772 112.575 82.9595 112.916 78.3187C113.257 73.6779 114.916 68.099 118.909 65.5176C119.84 64.8716 120.896 64.4283 122.009 64.2165C123.122 64.0046 124.267 64.0288 125.369 64.2877C126.472 64.5466 127.508 65.0343 128.411 65.7191C129.313 66.404 130.061 67.2708 130.607 68.2635C133.714 74.3402 127.931 85.1731 123.628 89.4804C123.321 89.9104 116.78 95.0108 116.77 94.8331C115.859 96.54 114.891 98.3761 113.764 100.338C111.664 103.998 109.281 108.104 106.368 112.378C103.295 117.019 99.9538 121.478 96.362 125.731C92.3486 130.526 87.9119 134.95 83.1053 138.95C83.0727 139.017 83.029 139.079 82.9761 139.131C84.8209 138.364 90.0808 136.448 90.5008 136.337C96.4007 134.912 108.68 135.647 112.155 141.543C112.721 142.523 113.074 143.612 113.19 144.738C113.307 145.864 113.185 147.003 112.833 148.079C112.481 149.155 111.906 150.145 111.145 150.984C110.385 151.823 109.457 152.493 108.421 152.949C104.208 154.93 98.4717 153.399 94.419 151.326Z" fill="#556D49"/>
</svg>
