<svg width="798" height="200" viewBox="0 0 798 200" fill="none" xmlns="http://www.w3.org/2000/svg">
<path d="M0.168945 185.102L87.8304 200V75.7973L0.168945 60.5199V185.102Z" fill="white"/>
<path d="M54.1084 9.58118C86.6958 12.0993 91.8449 47.3245 83.8462 55.343C75.7205 33.3413 58.0161 13.8155 58.0161 13.8155" fill="white"/>
<path d="M58.015 13.8155C58.015 13.8155 73.1096 32.9193 82.8717 58.1284C65.4494 57.6642 42.469 33.5242 54.0932 9.56714" fill="white"/>
<path d="M214.153 168.503C206.888 162.243 203.432 152.044 203.432 128.832V101.02C203.432 77.8089 206.902 67.61 214.153 61.3499C219.274 56.9045 227.188 54.1051 237.754 54.1051C247.333 54.1051 255.247 56.4122 261.031 61.3499C268.79 67.9335 271.922 79.1313 271.922 98.8822V99.3746H246.994V98.7134C246.994 85.2226 246.994 76.1631 237.585 76.1631C228.175 76.1631 228.175 85.2226 228.175 95.914V133.939C228.175 144.968 228.175 153.689 237.585 153.689C246.994 153.689 247.319 144.63 247.319 129.001V128.016H272.246V128.677C272.246 151.059 268.776 162.088 261.186 168.517C255.571 173.286 247.813 175.762 237.754 175.762C227.696 175.762 219.923 173.454 214.153 168.517V168.503Z" fill="white"/>
<path d="M351.655 56.0746L351.485 68.0883V142.646C351.485 164.043 338.775 175.733 317.318 175.733C295.861 175.733 283.475 164.043 283.475 142.646V68.0883L283.306 56.0746H308.233L308.064 68.0883V140.339C308.064 148.892 310.377 153.675 317.304 153.675C324.23 153.675 326.883 148.907 326.883 140.339V68.0883L326.713 56.0746H351.64H351.655Z" fill="white"/>
<path d="M367.004 173.764L367.173 161.75V68.0883L367.004 56.0746H399.69C422.304 56.0746 433.364 67.9195 433.364 86.3621V86.6857C433.364 98.8682 428.412 106.76 419.496 111.698V112.359C430.063 116.804 436.326 125.357 436.326 138.525V138.848C436.326 161.567 423.446 173.736 400.184 173.736H367.004V173.764ZM391.593 102.498H397.207C405.46 102.498 409.085 96.8987 409.085 89.3303V88.3456C409.085 80.7773 405.291 76.6555 397.362 76.6555H391.578V102.498H391.593ZM397.701 153.197C407.773 153.197 410.905 147.936 410.905 138.215V137.23C410.905 128.016 406.941 122.91 397.532 122.91H391.593V153.197H397.701Z" fill="white"/>
<path d="M471.988 123.079V152.705H504.18V173.778H447.399L447.569 161.764V68.1024L447.399 56.0887H503.517V77.162H471.988V101.682H497.409V123.079H471.988Z" fill="white"/>
<path d="M533.397 138.708C535.372 149.244 539.83 153.689 546.925 153.689C553.203 153.689 556.659 150.229 556.659 144.799C556.659 138.876 552.865 133.601 543.624 127.355L531.408 119.449C518.528 110.558 512.419 99.6981 512.419 86.6997C512.419 67.4411 525.793 54.1051 547.081 54.1051C566.563 54.1051 578.61 65.6264 580.585 86.6997L557.308 88.6691C555.982 80.7631 553.02 76.1631 546.573 76.1631C540.789 76.1631 537.488 79.9472 537.488 85.3773C537.488 91.7921 542.115 96.0827 549.874 101.513L562.26 109.419C575.295 118.141 581.897 129.662 581.897 143.659C581.897 163.579 568.368 175.762 547.236 175.762C526.103 175.762 512.25 163.255 510.092 140.705L533.369 138.736L533.397 138.708Z" fill="white"/>
<path d="M616.91 123.079V152.705H649.102V173.778H592.321L592.491 161.764V68.1024L592.321 56.0887H648.439V77.162H616.91V101.682H642.331V123.079H616.91Z" fill="white"/>
<path d="M685.414 123.079V152.705H717.606V173.778H660.825L660.994 161.764V68.1024L660.825 56.0887H716.943V77.162H685.414V101.682H710.835V123.079H685.414Z" fill="white"/>
<path d="M787.099 63.1647C794.519 69.256 797.496 78.4702 797.496 95.5905V134.276C797.496 151.397 794.519 160.611 787.099 166.702C781.16 171.64 773.57 173.778 764.316 173.778H729.33L729.499 161.764V68.1024L729.33 56.0887H764.316C773.556 56.0887 781.145 58.227 787.099 63.1647ZM753.919 76.6555V153.197H760.521C770.255 153.197 772.568 146.29 772.568 137.554V92.2846C772.568 84.5474 770.424 76.6415 760.521 76.6415H753.919V76.6555Z" fill="white"/>
<path d="M107.164 71.9428L87.5693 75.5722V199.606L181.706 164.69L107.164 152.001V71.9428Z" fill="white" fill-opacity="0.8"/>
<path d="M107.165 152.001L181.707 164.69V59.071L107.165 46.0725V152.001Z" fill="white"/>
<path d="M115.051 1C97.3188 2.36456 87.726 13.4217 83.9453 24.5069C86.6821 28.9101 88.3044 33.679 89.0098 38.1525C97.8408 19.9209 111.144 5.23431 111.144 5.23431C111.144 5.23431 98.9553 20.6665 89.4048 42.0914C89.5035 44.7783 89.2355 47.2401 88.6571 49.3362C105.698 46.9166 126.168 23.8739 115.066 1H115.051Z" fill="white" stroke="black" stroke-miterlimit="10"/>
</svg>
