<svg width="127" height="145" viewBox="0 0 127 145" fill="none" xmlns="http://www.w3.org/2000/svg">
<path d="M118.845 47.0827C116.045 49.1699 108.613 50.8149 107.981 50.9645C108.924 55.2034 109.581 59.5009 109.946 63.828C110.18 66.362 110.328 68.899 110.453 71.4709C110.564 70.2852 110.662 69.1935 110.745 69.148C111.622 65.0789 115.752 57.7674 120.359 57.2921C121.131 57.2375 121.906 57.346 122.633 57.6107C123.36 57.8753 124.023 58.2902 124.579 58.8283C125.136 59.3664 125.572 60.0155 125.861 60.7335C126.15 61.4515 126.284 62.2223 126.255 62.9956C126.252 66.2861 123.597 69.3545 121.112 71.2266C118.628 73.0987 112.281 74.6295 110.628 75.0102L110.796 77.8611C110.953 82.5574 111.092 87.2628 111.364 91.853C111.456 93.4908 111.605 95.0755 111.813 96.6497C111.912 95.6004 112.018 94.721 112.039 94.6013C112.933 90.523 117.045 83.2206 121.653 82.7453C122.427 82.6891 123.204 82.7971 123.934 83.0621C124.663 83.3272 125.328 83.7434 125.886 84.2834C126.443 84.8235 126.88 85.4752 127.169 86.1959C127.457 86.9166 127.59 87.69 127.558 88.4655C127.546 91.7393 124.891 94.8077 122.406 96.6798C119.922 98.552 114.207 99.9331 112.208 100.394C112.427 102.027 112.62 103.653 112.888 105.217C113.087 106.298 113.217 107.331 113.492 108.392C113.768 109.454 113.966 110.493 114.206 111.53C114.698 113.426 115.274 115.557 115.843 117.476C116.238 118.797 116.632 120.075 117.016 121.337C116.9 119.734 116.738 116.577 116.763 116.304C117.008 112.147 119.97 104.281 124.469 103.129C125.224 102.961 126.006 102.952 126.764 103.105C127.523 103.258 128.24 103.568 128.871 104.016C129.503 104.463 130.033 105.038 130.428 105.704C130.823 106.369 131.074 107.11 131.164 107.878C131.645 111.143 129.487 114.568 127.354 116.768C124.966 119.215 118.174 121.875 117.345 122.219C117.997 124.33 118.655 126.373 119.309 128.289C120.733 132.533 122.106 136.285 123.238 139.477L120.569 140.93C119.382 137.639 118.002 133.674 116.62 129.19C115.95 127.046 115.266 124.757 114.596 122.374C112.263 122.659 109.914 122.804 107.564 122.806C106.259 126.264 104.482 129.525 102.285 132.496C103.984 133.908 105.663 135.243 107.271 136.488C110.573 139.017 113.665 141.358 116.315 143.247L113.412 144.827C111.054 143.039 108.434 141.047 105.544 138.64C103.803 137.23 101.964 135.679 100.097 134.077C99.4201 134.662 93.8306 139.372 90.5144 140.312C87.5181 141.165 83.4806 141.416 80.8437 139.433C80.2159 138.985 79.6889 138.41 79.2967 137.745C78.9045 137.08 78.6557 136.341 78.5663 135.575C78.4769 134.808 78.5489 134.031 78.7777 133.294C79.0065 132.558 79.387 131.877 79.8948 131.296C83.0563 127.887 91.3774 129.067 95.1454 130.823C95.3697 130.918 97.6461 132.318 99.0889 133.22C98.3267 132.575 97.563 131.887 96.8008 131.242C95.2748 129.909 93.7989 128.549 92.1639 127.016C91.4063 126.261 90.6487 125.505 89.8653 124.742C89.0819 123.978 88.3714 123.11 87.6123 122.312C85.8699 120.383 84.217 118.341 82.5793 116.247C81.3854 117.589 77.1133 122.295 74.2775 123.602C71.4416 124.908 67.4841 125.743 64.5984 124.177C63.905 123.832 63.2927 123.343 62.8015 122.744C62.3103 122.144 61.9515 121.448 61.7486 120.7C61.5457 119.952 61.5033 119.17 61.6242 118.405C61.7451 117.64 62.0265 116.909 62.4501 116.26C65.06 112.394 73.4637 112.297 77.458 113.475C77.7156 113.551 80.4849 114.704 81.9779 115.341C81.0068 114.074 80.019 112.816 79.0889 111.505C76.3803 107.723 73.7521 103.81 71.1072 99.9059L68.6622 96.3692C68.2451 96.8343 63.3524 102.506 60.1071 104.014C57.2789 105.294 53.3137 106.155 50.428 104.589C49.7336 104.242 49.1204 103.752 48.6284 103.152C48.1365 102.552 47.7769 101.854 47.5732 101.105C47.3695 100.356 47.3263 99.5722 47.4465 98.8054C47.5667 98.0386 47.8475 97.3059 48.2706 96.6553C50.8896 92.8059 59.2934 92.7084 63.2876 93.8869C63.5878 93.9615 67.5741 95.6419 68.5684 96.1173C66.7597 93.5107 64.9434 90.9298 63.0542 88.4536C60.5131 85.1117 57.7638 81.9334 54.8227 78.9375C54.6179 79.1572 49.531 85.1077 46.2099 86.6349C43.3816 87.9154 39.4256 88.793 36.5308 87.2105C35.8375 86.8648 35.2251 86.3762 34.7339 85.777C34.2428 85.1777 33.884 84.4813 33.681 83.7335C33.4781 82.9857 33.4357 82.2035 33.5566 81.4382C33.6775 80.6729 33.959 79.942 34.3825 79.2934C36.9924 75.4273 45.4053 75.3464 49.3904 76.5083C49.6997 76.5995 53.9604 78.3469 54.7409 78.7873L54.2455 78.2349C51.1979 75.3274 47.9025 72.6914 44.3969 70.3567C42.4631 69.0298 40.5611 67.8804 38.6787 66.8067C37.829 68.0266 33.8991 73.5202 31.154 75.2313C28.4089 76.9425 24.6331 78.1114 21.5895 76.8912C20.8639 76.623 20.2026 76.2054 19.6485 75.6655C19.0943 75.1256 18.6595 74.4755 18.3723 73.757C18.085 73.0386 17.9517 72.2679 17.9809 71.4948C18.0102 70.7217 18.2013 69.9634 18.542 69.2689C20.6426 65.1826 29.0469 64.1328 33.1612 64.8565C33.375 64.8916 35.5911 65.5455 37.1979 66.0336C36.3567 65.5613 35.4807 65.0647 34.641 64.6349C31.5643 62.9567 28.5692 61.6668 25.9197 60.5349C24.4101 59.9073 23.0975 59.3239 21.7636 58.8603C20.3289 59.6416 14.4311 62.5935 11.2411 62.7728C8.05114 62.9521 4.13543 62.3149 2.00825 59.8384C1.48524 59.2661 1.08843 58.5903 0.84348 57.8547C0.59853 57.1191 0.510922 56.3403 0.586423 55.5688C0.661923 54.7972 0.898833 54.0503 1.28172 53.3763C1.6646 52.7024 2.18494 52.1165 2.80894 51.6568C6.64315 49.0064 14.4994 51.9548 17.8182 54.4747C18.0985 54.7115 22.2125 58.5726 22.0791 58.6453L21.9956 58.6907C23.2355 59.1406 24.5709 59.6467 26.0109 60.2256C28.6589 61.3151 31.6191 62.5807 34.7839 64.1028C38.2178 65.7682 41.5481 67.6396 44.7565 69.7066C48.3659 71.9886 51.7608 74.5935 54.8993 77.4895L54.963 77.6063C54.3178 76.4215 52.4913 73.0673 52.3459 72.8003C50.8411 68.9247 50.2152 60.5463 53.8267 57.606C54.4408 57.1338 55.1476 56.7964 55.901 56.6159C56.6544 56.4355 57.4373 56.416 58.1988 56.5587C58.9604 56.7014 59.6833 57.0032 60.3204 57.4443C60.9574 57.8854 61.4943 58.4559 61.896 59.1186C63.7016 61.8784 63.1884 65.9009 62.1437 68.8281C60.9501 72.1176 55.6589 77.5735 55.2493 78.0129C58.37 81.0353 61.2889 84.2593 63.9871 87.6643C65.5779 89.6324 67.1034 91.6792 68.6395 93.7852C68.067 92.7339 67.5672 91.8161 67.4945 91.6826C65.9898 87.8071 65.3639 79.4286 68.9754 76.4884C69.5895 76.0162 70.2963 75.6788 71.0496 75.4983C71.803 75.3178 72.586 75.2983 73.3475 75.4411C74.109 75.5838 74.8319 75.8856 75.469 76.3267C76.1061 76.7678 76.6429 77.3383 77.0447 78.001C78.8503 80.7607 78.328 84.7665 77.2832 87.6938C76.2385 90.621 71.8163 95.4089 70.627 96.6407C71.1996 97.454 71.7526 98.1914 72.3434 99.038C75.0793 102.871 77.7818 106.721 80.5465 110.409C81.5191 111.718 82.5402 112.958 83.5447 114.207C83.0449 113.289 82.636 112.538 82.5542 112.388C81.0494 108.512 80.4235 100.134 84.035 97.1934C84.6491 96.7211 85.3559 96.3837 86.1093 96.2033C86.8627 96.0228 87.6457 96.0033 88.4072 96.1461C89.1687 96.2888 89.8916 96.5905 90.5286 97.0316C91.1657 97.4727 91.7026 98.0433 92.1043 98.706C93.9099 101.466 93.3876 105.471 92.3429 108.399C91.2981 111.326 87.2932 115.649 85.8914 117.126C86.9641 118.381 88.0201 119.645 89.1232 120.797C89.8732 121.578 90.5641 122.37 91.3551 123.108C92.146 123.846 92.9204 124.592 93.6856 125.322C95.2115 126.655 96.8086 128.079 98.2967 129.302C99.3575 130.217 100.389 131.04 101.432 131.922C100.435 130.647 98.5688 128.094 98.4416 127.86C96.7293 124.625 95.8816 121.003 95.9809 117.344C95.7457 117.012 95.5505 116.653 95.3994 116.276C95.1167 115.554 94.9888 114.782 95.0239 114.008C95.0589 113.234 95.2563 112.476 95.603 111.783C95.9498 111.091 96.4382 110.479 97.0367 109.987C97.6352 109.495 98.3303 109.135 99.0771 108.929C103.603 107.827 109.886 113.407 112.111 116.977C112.229 117.194 113.377 119.619 114.086 121.159C113.813 120.182 113.561 119.281 113.261 118.254C112.724 116.275 112.246 114.285 111.729 112.144C111.514 111.114 111.29 110.068 111.074 108.995C110.858 107.923 110.708 106.814 110.516 105.707C110.137 103.144 109.867 100.544 109.672 97.8806C107.937 98.3492 101.807 100 98.7292 99.5121C95.6518 99.0243 91.8852 97.5488 90.3298 94.6527C89.9321 93.9837 89.6806 93.238 89.5918 92.4648C89.5031 91.6917 89.5791 90.9085 89.8148 90.1669C90.0506 89.4253 90.4407 88.7421 90.9596 88.1623C91.4785 87.5826 92.1144 87.1193 92.8253 86.8031C97.132 85.0205 104.204 89.5861 106.882 92.7576C107.009 92.9912 108.72 95.4567 109.61 96.854C109.494 95.2511 109.388 93.6649 109.314 92.0606C109.143 87.4158 109.104 82.6984 109.05 77.99C109.044 76.5505 109.022 75.1201 108.984 73.6987C108.377 73.8559 101.068 75.8453 97.6333 75.3359C94.5559 74.8481 90.7817 73.3982 89.243 70.4931C88.8422 69.8249 88.5882 69.079 88.4978 68.3051C88.4074 67.5311 88.4827 66.7469 88.7188 66.0044C88.9548 65.2619 89.3462 64.5782 89.8668 63.9987C90.3874 63.4193 91.0254 62.9573 91.7384 62.6435C96.0451 60.8609 103.1 65.4356 105.795 68.598C105.941 68.865 108.387 72.4442 108.955 73.3681C108.895 70.1988 108.765 66.981 108.582 63.9436C108.303 59.7521 107.759 55.5824 106.953 51.4595C106.703 51.5958 99.0375 53.606 95.5265 53.1163C92.4492 52.6285 88.6916 51.1697 87.1362 48.2736C86.7385 47.6046 86.487 46.8589 86.3982 46.0858C86.3095 45.3126 86.3855 44.5294 86.6212 43.7878C86.857 43.0462 87.2472 42.3631 87.766 41.7833C88.2849 41.2035 88.9208 40.7402 89.6317 40.424C93.9384 38.6414 101.01 43.207 103.689 46.3784C103.843 46.6621 106.477 50.5069 106.894 51.232C106.785 51.0318 106.826 50.7498 106.774 50.4965C105.845 46.3887 104.554 42.3708 102.918 38.4897C102.043 36.3266 101.08 34.3197 100.085 32.3733C98.7189 32.9226 92.4196 35.3359 89.1844 35.1937C85.9491 35.0515 82.1549 34.002 80.328 31.362C79.8698 30.7382 79.5476 30.0252 79.3823 29.2691C79.2169 28.513 79.2121 27.7307 79.3682 26.9727C79.5243 26.2147 79.8377 25.4979 80.2882 24.8688C80.7388 24.2397 81.3164 23.7123 81.9836 23.3206C86.0708 21.095 93.6234 24.8361 96.6145 27.7076C96.7144 27.8912 98.272 29.6394 99.3462 30.9368C98.8736 30.069 98.392 29.1845 97.9467 28.3669C96.2566 25.263 94.5116 22.5351 92.9651 20.1318C92.0592 18.7861 91.2169 17.5571 90.4125 16.4373C88.7919 16.2813 82.2443 15.4979 79.4935 13.9018C76.7427 12.3058 73.8091 9.61941 73.4152 6.39378C73.2962 5.62859 73.3393 4.84698 73.5415 4.09956C73.7438 3.35215 74.1007 2.65563 74.5893 2.05506C75.0779 1.45451 75.6872 0.963317 76.3777 0.613328C77.0683 0.263342 77.8246 0.0623622 78.5979 0.0233931C83.2614 -0.0712382 88.1925 6.72016 89.5547 10.6517C89.7274 10.9688 90.9082 16.5136 90.7961 16.4665C91.5732 17.5362 92.4125 18.6802 93.282 19.9592C94.9044 22.3428 96.7161 25.0344 98.473 28.1019C100.408 31.3777 102.15 34.7633 103.692 38.2417C105.44 42.1413 106.834 46.1902 107.857 50.3397C107.889 50.3798 107.913 50.4249 107.93 50.4732C108.009 49.1101 108.403 45.3043 108.46 45.0132C109.347 40.9607 113.467 33.6326 118.129 33.2574C118.901 33.2028 119.676 33.3113 120.403 33.576C121.13 33.8406 121.793 34.2555 122.349 34.7936C122.906 35.3316 123.342 35.9808 123.631 36.6988C123.92 37.4168 124.054 38.1876 124.025 38.9609C123.984 42.1422 121.329 45.2106 118.845 47.0827Z" fill="#556D49"/>
</svg>
