<svg width="208" height="206" viewBox="0 0 358 346" fill="none" xmlns="http://www.w3.org/2000/svg">
<ellipse cx="178.651" cy="172.585" rx="178.651" ry="172.585" fill="#448C2F"/>
<path d="M258.075 155.85V120.54C258.075 81.6445 222.93 50 179.731 50H178.144C134.945 50 99.7997 81.6445 99.7997 120.54V155.85C94.2243 156.796 90 161.199 90 166.501V283.347C90 289.334 95.3925 294.189 102.042 294.189H159.996C154.686 284.42 159.211 273.663 159.211 273.663C159.211 273.663 172.061 280.999 175.607 289.663C175.607 289.663 176.356 291.289 176.793 294.189H182.374C178.923 283.57 182.109 276.707 182.109 276.707C185.3 268.914 197.33 262.029 197.33 262.029C197.33 262.029 202.764 276.298 192.079 285.918L182.887 294.189H188.262C193.082 289.546 198.646 286.364 198.646 286.364C198.646 286.364 200.021 289.631 200.369 294.189H255.815C262.465 294.189 267.857 289.334 267.857 283.347V166.501C267.857 161.205 263.633 156.801 258.057 155.85H258.075ZM175.383 280.282L165.79 271.644C155.105 262.024 160.539 247.756 160.539 247.756C160.539 247.756 172.574 254.645 175.76 262.433C175.76 262.433 179.023 269.456 175.377 280.277L175.383 280.282ZM161.725 224.51C161.725 224.51 173.023 230.99 175.896 238.002C175.896 238.002 178.834 244.319 175.548 254.066L166.911 246.289C157.294 237.631 161.719 224.51 161.719 224.51H161.725ZM175.707 229.407L167.937 222.411C159.282 214.618 165.931 202.523 165.931 202.523C165.931 202.523 173.436 208.637 176.02 214.948C176.02 214.948 178.663 220.632 175.707 229.402V229.407ZM177.796 207.463C171.908 199.946 173.005 193.816 173.005 193.816C173.394 189.811 176.38 185.077 177.813 183.117C177.813 183.117 182.345 189.561 182.675 193.816C182.675 193.816 183.784 199.983 177.843 207.527L177.79 207.463H177.796ZM191.643 196.674C191.643 196.674 197.472 207.84 189.678 214.857L182.687 221.152C180.026 213.258 182.404 208.143 182.404 208.143C184.728 202.464 191.643 196.679 191.643 196.679V196.674ZM181.855 229.221C184.445 222.911 195.076 216.796 195.076 216.796C195.076 216.796 198.593 228.892 189.932 236.685L182.162 243.681C179.206 234.911 181.849 229.227 181.849 229.227L181.855 229.221ZM190.958 260.563L182.327 268.335C179.041 258.592 181.979 252.271 181.979 252.271C184.852 245.259 196.15 238.778 196.15 238.778C196.15 238.778 200.575 251.899 190.958 260.563ZM239.196 155.659H118.679V120.54C118.679 91.0151 145.352 66.9989 178.144 66.9989H179.731C212.522 66.9989 239.196 91.0151 239.196 120.54V155.659Z" fill="white"/>
</svg>
