<svg width="208" height="206" viewBox="0 0 358 346" fill="none" xmlns="http://www.w3.org/2000/svg">
<ellipse cx="178.651" cy="172.585" rx="178.651" ry="172.585" fill="#448C2F"/>
<path d="M177.857 265.6L177.072 262.895C176.577 261.185 176.184 259.453 175.895 257.743L180.357 257.32C180.472 258.016 180.611 258.72 180.768 259.421L183.062 258.002L185.913 260.621L177.857 265.6Z" fill="white"/>
<path d="M187.802 259.457L184.952 256.838L196.287 249.831L199.137 252.45L187.802 259.457ZM201.021 251.286L198.171 248.667L206.613 243.446C207.404 242.846 208.171 242.223 208.895 241.596L212.295 243.815C211.48 244.524 210.61 245.229 209.717 245.902L209.553 246.016L201.027 251.29L201.021 251.286ZM213.919 242.332L210.381 240.245C213.249 237.485 215.544 234.411 217.198 231.101L221.407 232.297C219.59 235.925 217.072 239.299 213.925 242.332H213.919ZM222.241 230.482L217.959 229.445C219.348 226.203 220.175 222.702 220.429 219.041L224.922 219.214C224.65 223.17 223.75 226.963 222.241 230.487V230.482ZM225 217.309L220.502 217.263C220.502 217.054 220.502 216.841 220.502 216.631C220.502 213.353 220.061 209.988 219.191 206.632L223.605 205.986C224.529 209.556 224.994 213.139 224.994 216.631C224.994 216.854 224.994 217.082 224.994 217.309H225Z" fill="white"/>
<path d="M218.709 204.877C218.401 203.867 218.093 202.99 217.822 202.285C217 202.717 215.998 203.258 214.869 203.89L212.182 201.175C215.527 199.302 217.749 198.233 217.84 198.192L220.165 197.078L221.143 199.02C221.185 199.102 222.133 201.002 223.087 204.122L218.703 204.881L218.709 204.877Z" fill="white"/>
<path d="M175.63 255.924C175.413 254.173 175.298 252.4 175.298 250.654C175.298 248.73 175.431 246.793 175.696 244.883L180.171 245.238C179.923 247.025 179.797 248.848 179.797 250.654C179.797 252.295 179.899 253.959 180.105 255.605L175.63 255.924ZM180.449 243.519L175.992 243.055C176.663 239.404 177.828 235.793 179.452 232.319L183.692 233.442C182.17 236.703 181.077 240.09 180.443 243.514L180.449 243.519ZM184.495 231.824L180.304 230.591C182.532 226.299 184.869 223.416 185.751 222.329C185.878 222.174 185.968 222.061 186.022 221.988C186.312 221.592 186.626 221.188 186.946 220.787L190.793 222.538C190.497 222.906 190.213 223.275 189.948 223.639C189.875 223.734 189.754 223.889 189.585 224.093C188.764 225.107 186.572 227.808 184.489 231.824H184.495ZM192.019 221.092L188.275 219.219C190.739 216.427 193.873 213.562 197.58 210.706L200.799 213.075C197.284 215.781 194.332 218.482 192.025 221.097L192.019 221.092ZM202.435 211.834L199.295 209.41C202.604 206.978 206.294 204.572 210.255 202.267L213.003 204.945C209.175 207.173 205.618 209.488 202.435 211.834Z" fill="white"/>
<path d="M184.759 216.886L183.672 214.185C182.996 212.507 182.404 210.811 181.921 209.147L186.311 208.419C186.51 209.092 186.722 209.77 186.951 210.452L189.004 208.906L192.181 211.302L184.759 216.891V216.886Z" fill="white"/>
<path d="M193.612 210.224L190.436 207.828L199.016 201.371L202.193 203.767L193.612 210.224ZM203.618 202.689L200.442 200.293L203.956 197.647C205.568 196.433 207.054 195.123 208.37 193.754L212.012 195.741C210.556 197.251 208.92 198.697 207.138 200.038L203.624 202.685L203.618 202.689ZM213.213 194.432L209.457 192.572C211.541 190.189 213.213 187.561 214.427 184.764L218.702 185.815C217.362 188.898 215.52 191.794 213.219 194.432H213.213ZM219.312 184.291L214.983 183.373C215.997 180.663 216.619 177.762 216.836 174.742L221.329 174.924C221.1 178.189 220.417 181.345 219.318 184.291H219.312ZM221.402 173.346L216.903 173.274C216.909 172.951 216.915 172.637 216.915 172.319C216.915 169.745 216.631 167.103 216.076 164.475L220.514 163.938C221.112 166.744 221.414 169.563 221.414 172.319C221.414 172.655 221.414 172.996 221.402 173.342V173.346Z" fill="white"/>
<path d="M215.743 163.02C215.495 162.042 215.242 161.192 215.012 160.491C214.209 160.919 213.243 161.442 212.156 162.051L209.463 159.341C212.784 157.472 215.024 156.394 215.121 156.349L217.531 155.198L218.454 157.231C218.491 157.313 219.366 159.25 220.157 162.392L215.737 163.024L215.743 163.02Z" fill="white"/>
<path d="M181.487 207.587C180.659 204.377 180.176 201.166 180.056 198.042L184.548 197.942C184.663 200.88 185.116 203.908 185.901 206.937L181.487 207.582V207.587ZM184.524 196.437H180.025C180.025 193.054 180.448 189.816 181.281 186.811L185.684 187.502C184.917 190.28 184.524 193.286 184.524 196.437ZM186.13 186.06L181.771 185.224C182.326 183.591 182.833 182.609 182.942 182.4C183.92 180.404 185.339 178.335 187.151 176.243L190.913 178.094C189.277 179.976 188.008 181.831 187.145 183.596L187.109 183.664C187.109 183.664 186.65 184.51 186.124 186.06H186.13ZM192.03 176.861L188.365 174.902C190.617 172.514 193.413 170.059 196.68 167.603L199.856 170C196.764 172.323 194.132 174.629 192.03 176.861ZM201.306 168.936L198.196 166.489C201.106 164.393 204.337 162.306 207.797 160.296L210.545 162.974C207.211 164.911 204.101 166.917 201.306 168.936Z" fill="white"/>
<path d="M184.41 171.818L183.323 169.117C182.647 167.43 182.061 165.73 181.59 164.056L185.992 163.356C186.179 164.024 186.385 164.697 186.608 165.375L188.649 163.838L191.831 166.23L184.41 171.818Z" fill="white"/>
<path d="M193.413 165.038L190.23 162.647L199.717 155.503L202.899 157.895L193.413 165.038ZM204.476 156.708L201.293 154.316L201.619 154.071C204.518 151.888 206.933 149.391 208.799 146.649L212.803 148.196C210.72 151.251 208.032 154.034 204.802 156.467L204.476 156.712V156.708ZM213.823 146.59L209.717 145.208C211.396 142.389 212.561 139.283 213.183 135.977L217.634 136.455C216.951 140.074 215.665 143.489 213.817 146.595L213.823 146.59ZM217.918 134.708L213.443 134.367C213.63 132.958 213.727 131.494 213.727 130.025C213.727 128.256 213.588 126.446 213.316 124.645L217.785 124.264C218.075 126.192 218.226 128.129 218.226 130.025C218.226 131.607 218.123 133.181 217.918 134.708Z" fill="white"/>
<path d="M213.038 123.036C212.851 122.104 212.651 121.281 212.464 120.594C211.679 121.012 210.749 121.513 209.723 122.095L207.023 119.384C210.327 117.52 212.585 116.433 212.676 116.388L215.176 115.187L216.039 117.32C216.075 117.402 216.86 119.38 217.482 122.531L213.032 123.027L213.038 123.036Z" fill="white"/>
<path d="M181.137 162.31C180.4 159.2 180.025 156.103 180.025 153.107C180.025 152.606 180.037 152.106 180.056 151.611L184.548 151.715C184.53 152.174 184.518 152.643 184.518 153.107C184.518 155.908 184.868 158.804 185.563 161.714L181.137 162.31ZM184.663 150.046L180.176 149.805C180.708 144.189 182.435 140.815 182.658 140.393C182.864 139.979 183.093 139.556 183.335 139.133L187.453 140.497C187.236 140.865 187.042 141.234 186.867 141.593L186.831 141.661C186.819 141.689 185.158 144.762 184.663 150.042V150.046ZM188.389 139.051L184.415 137.469C186.378 134.677 189.246 131.744 192.948 128.761L196.233 131.071C192.803 133.835 190.164 136.518 188.389 139.051ZM197.785 129.857L194.585 127.478C197.676 125.123 201.233 122.763 205.164 120.458L207.93 123.127C204.156 125.341 200.738 127.606 197.785 129.857Z" fill="white"/>
<path d="M176.317 66.9595L174.324 64.9588C172.996 63.54 171.776 62.0849 170.695 60.6253L174.62 58.9701C175.134 59.6658 175.689 60.3615 176.269 61.0482C176.849 60.357 177.398 59.6613 177.917 58.9655L181.843 60.6162C180.731 62.1122 179.475 63.6082 178.105 65.0588L176.323 66.955L176.317 66.9595Z" fill="white"/>
<path d="M182.875 59.1611L178.872 57.615C180.792 54.7958 182.211 51.9174 183.093 49.0526L187.471 49.8166C186.505 52.9496 184.959 56.0917 182.875 59.1611ZM187.924 48.1796L183.497 47.5702C183.908 45.8741 184.119 44.2326 184.119 42.7002C184.119 41.4815 183.98 40.7858 183.98 40.7812L183.956 40.6357C183.902 40.0446 183.775 39.3943 183.588 38.6986L187.99 38.0165C188.213 38.8305 188.358 39.608 188.431 40.3311C188.479 40.5948 188.612 41.4178 188.612 42.7002C188.612 44.4372 188.377 46.2788 187.918 48.175L187.924 48.1796ZM183.129 37.2571C182.235 34.8062 180.683 31.9323 178.521 28.7084L182.537 27.1805C184.832 30.6046 186.492 33.6921 187.465 36.3568L183.129 37.2571Z" fill="white"/>
<path d="M177.568 27.326C177.066 26.6166 176.589 25.9663 176.161 25.3979C175.726 25.9618 175.249 26.5984 174.747 27.2941L170.786 25.6935C172.308 23.5654 173.655 21.9602 174.319 21.1963L176.233 19L178.099 21.219C178.159 21.2963 179.669 23.0925 181.535 25.739L177.561 27.326H177.568Z" fill="white"/>
<path d="M169.65 59.1655C167.561 56.1007 166.015 52.9586 165.049 49.8255L169.427 49.0616C170.308 51.9218 171.727 54.8047 173.648 57.6195L169.644 59.1655H169.65ZM164.596 48.1885C164.131 46.2878 163.901 44.4416 163.901 42.7C163.901 41.395 164.034 40.5674 164.083 40.3218C164.167 39.5943 164.312 38.8304 164.511 38.0528L168.925 38.6894C168.75 39.376 168.624 40.0399 168.551 40.6674L168.533 40.7902C168.533 40.7902 168.394 41.4814 168.394 42.7C168.394 44.237 168.605 45.8785 169.016 47.5792L164.59 48.1885H164.596ZM169.36 37.2297L165 36.393C165.954 33.5601 167.567 30.4498 169.777 27.144L173.793 28.6673C171.727 31.7549 170.236 34.6333 169.354 37.2252L169.36 37.2297Z" fill="white"/>
<path d="M184.089 129.429L183.002 126.728C182.319 125.037 181.746 123.327 181.299 121.644L185.707 120.981C185.882 121.644 186.081 122.313 186.299 122.981L188.334 121.449L191.516 123.845L184.095 129.434L184.089 129.429Z" fill="white"/>
<path d="M192.917 122.781L189.734 120.385L198.176 114.028L201.359 116.424L192.917 122.781ZM202.766 115.365L199.577 112.977C202.21 110.986 204.42 108.689 206.147 106.157L210.151 107.698C208.213 110.545 205.731 113.128 202.766 115.365ZM211.063 106.27L206.963 104.879C208.46 102.387 209.541 99.6359 210.181 96.7075L214.62 97.2577C213.913 100.477 212.717 103.51 211.063 106.27ZM214.921 95.7117L210.459 95.2842C210.749 93.579 210.894 91.8056 210.894 90.0049C210.894 88.8954 210.839 87.7677 210.731 86.649L215.217 86.3989C215.332 87.5994 215.392 88.8135 215.392 90.0049C215.392 91.9466 215.235 93.8655 214.928 95.7071L214.921 95.7117Z" fill="white"/>
<path d="M210.557 85.2075C210.436 84.3208 210.285 83.5341 210.146 82.8657C209.391 83.2704 208.504 83.7524 207.531 84.3026L204.832 81.597C208.111 79.7418 210.388 78.6413 210.484 78.5959L213.087 77.3454L213.866 79.5963C213.896 79.6827 214.584 81.6925 215.025 84.8528L210.551 85.2075H210.557Z" fill="white"/>
<path d="M180.913 120.067C180.327 117.434 180.025 114.81 180.025 112.264C180.025 111.645 180.044 111.027 180.08 110.422L184.572 110.567C184.542 111.127 184.524 111.695 184.524 112.264C184.524 114.619 184.802 117.056 185.345 119.503L180.913 120.067ZM184.693 109.085L180.213 108.803C180.738 104.029 182.205 101.155 182.411 100.768C182.664 100.25 182.96 99.7223 183.286 99.1948L187.356 100.636C187.079 101.086 186.825 101.532 186.614 101.969L186.577 102.037C186.577 102.037 185.176 104.638 184.687 109.08L184.693 109.085ZM188.232 99.3631L184.307 97.7124C186.136 95.2433 188.775 92.6377 192.145 89.9731L195.4 92.3103C192.29 94.7704 189.88 97.144 188.232 99.3631ZM196.801 91.2327L193.63 88.8317C196.42 86.74 199.627 84.6301 203.159 82.5566L205.919 85.2258C202.525 87.2129 199.458 89.2319 196.801 91.2281V91.2327Z" fill="white"/>
<path d="M185.152 90.7007L184.065 87.9996C183.377 86.299 182.815 84.5801 182.393 82.8931L186.813 82.2656C186.976 82.9204 187.163 83.5843 187.374 84.2482L189.397 82.7248L192.574 85.1212L185.152 90.7098V90.7007Z" fill="white"/>
<path d="M194.216 83.8797L191.04 81.4834L198.999 75.4901C199.585 75.049 200.14 74.5852 200.66 74.1123L204.126 76.2677C203.516 76.8225 202.864 77.3636 202.175 77.882L194.216 83.8752V83.8797ZM205.641 74.7671L201.946 72.8391C204.313 70.2654 205.81 67.2369 206.39 63.8447L210.847 64.2767C210.17 68.21 208.419 71.7387 205.635 74.7626L205.641 74.7671ZM211.088 62.4305L206.602 62.2168C206.65 61.6438 206.674 61.0482 206.674 60.457C206.674 57.8696 206.215 55.1277 205.303 52.3129L209.675 51.5126C210.666 54.5911 211.173 57.5968 211.173 60.457C211.173 61.1209 211.143 61.7848 211.088 62.4305Z" fill="white"/>
<path d="M204.734 50.6805C204.414 49.8348 204.082 49.0799 203.786 48.4433C203.14 48.9435 202.385 49.5392 201.57 50.2122L198.255 47.9249C201.015 45.6559 203.013 44.2553 203.092 44.1962L205.35 42.6183L206.661 44.7191C206.709 44.801 207.911 46.7336 209.058 49.7484L204.734 50.6851V50.6805Z" fill="white"/>
<path d="M182.006 81.1696C181.589 79.0688 181.378 76.9726 181.378 74.9354C181.378 73.4712 181.487 72.0252 181.704 70.6383L186.173 71.0293C185.979 72.2889 185.877 73.6031 185.877 74.9354C185.877 76.8043 186.07 78.7323 186.456 80.6649L182.012 81.1651L182.006 81.1696ZM186.468 69.4515L182.036 68.8785C182.616 66.3412 183.389 64.8087 183.54 64.5359C184.409 62.767 185.623 60.8799 187.157 58.9292L191.028 60.6526C189.627 62.4351 188.522 64.1448 187.749 65.7318L187.712 65.8C187.712 65.8 187 67.1187 186.475 69.4515H186.468ZM192.157 59.2702L188.371 57.4422C190.635 54.7821 193.443 52.0129 196.728 49.2027L200.104 51.4399C196.97 54.1182 194.301 56.7556 192.157 59.2702Z" fill="white"/>
<path d="M171.861 242.564L164.439 236.975L167.622 234.584L169.681 236.134C169.916 235.448 170.14 234.766 170.345 234.088L174.729 234.843C174.222 236.507 173.624 238.194 172.954 239.863L171.867 242.564H171.861Z" fill="white"/>
<path d="M162.833 235.766L153.214 228.522L156.396 226.131L166.016 233.374L162.833 235.766ZM151.607 227.313L147.296 224.066C145.436 222.666 143.715 221.16 142.187 219.596L145.81 217.591C147.205 219.019 148.775 220.392 150.478 221.674L154.79 224.921L151.607 227.313ZM140.822 218.132C138.22 215.185 136.161 211.943 134.705 208.496L138.993 207.469C140.321 210.615 142.199 213.571 144.572 216.254L140.828 218.132H140.822ZM134.035 206.787C132.845 203.476 132.169 199.939 132.03 196.273L136.523 196.173C136.656 199.57 137.278 202.844 138.377 205.9L134.035 206.782V206.787ZM136.499 194.527L132 194.509C132.024 191.062 132.507 187.529 133.425 184.014L137.839 184.669C136.976 187.975 136.523 191.294 136.499 194.527Z" fill="white"/>
<path d="M138.305 183.041L133.921 182.281C134.875 179.162 135.823 177.257 135.865 177.18L136.844 175.242L139.168 176.352C139.259 176.397 141.487 177.461 144.833 179.335L142.146 182.05C141.016 181.418 140.014 180.876 139.193 180.444C138.921 181.154 138.613 182.027 138.305 183.041Z" fill="white"/>
<path d="M175.218 233.11L170.81 232.437C171.722 229.054 172.266 225.676 172.435 222.393L176.927 222.52C176.752 225.985 176.179 229.55 175.218 233.11ZM176.982 220.737L172.483 220.706C172.483 220.542 172.483 220.383 172.483 220.219C172.483 216.877 172.09 213.676 171.311 210.697L175.726 210.047C176.559 213.239 176.982 216.663 176.982 220.224C176.982 220.392 176.982 220.565 176.982 220.737ZM170.846 209.074C170.2 207.055 169.596 205.945 169.59 205.936L169.554 205.873C168.636 203.995 167.332 202.044 165.677 200.07L169.482 198.265C171.293 200.43 172.736 202.585 173.763 204.677C173.89 204.918 174.542 206.168 175.218 208.287L170.846 209.083V209.074ZM164.458 198.679C162.145 196.151 159.24 193.554 155.828 190.949L159.029 188.57C162.628 191.317 165.702 194.068 168.165 196.76L164.464 198.679H164.458ZM154.222 189.753C151.106 187.484 147.652 185.237 143.944 183.082L146.692 180.404C150.533 182.636 154.119 184.965 157.35 187.32L154.222 189.753Z" fill="white"/>
<path d="M172.259 192.354L164.838 186.765L168.014 184.369L170.067 185.915C170.297 185.233 170.514 184.555 170.707 183.882L175.098 184.61C174.608 186.279 174.017 187.975 173.346 189.648L172.259 192.349V192.354Z" fill="white"/>
<path d="M163.406 185.692L154.826 179.235L158.002 176.839L166.583 183.296L163.406 185.692ZM153.4 178.157L149.886 175.511C148.105 174.169 146.462 172.723 145.013 171.214L148.654 169.227C149.971 170.591 151.456 171.9 153.068 173.114L156.583 175.761L153.407 178.157H153.4ZM143.805 169.9C141.504 167.267 139.657 164.366 138.316 161.287L142.591 160.232C143.805 163.029 145.478 165.652 147.561 168.04L143.805 169.9ZM137.7 159.764C136.595 156.813 135.919 153.661 135.689 150.396L140.182 150.215C140.393 153.229 141.015 156.135 142.036 158.845L137.706 159.764H137.7ZM135.611 148.819C135.599 148.478 135.599 148.137 135.599 147.8C135.599 145.044 135.901 142.225 136.498 139.42L140.937 139.956C140.381 142.584 140.097 145.226 140.097 147.805C140.097 148.118 140.097 148.437 140.109 148.755L135.611 148.823V148.819Z" fill="white"/>
<path d="M141.269 138.492L136.849 137.86C137.64 134.722 138.515 132.781 138.558 132.699L139.482 130.666L141.891 131.817C141.988 131.862 144.228 132.94 147.549 134.809L144.856 137.523C143.775 136.914 142.809 136.391 142 135.964C141.77 136.664 141.516 137.514 141.269 138.492Z" fill="white"/>
<path d="M175.533 183.055L171.118 182.409C171.903 179.376 172.356 176.352 172.471 173.414L176.964 173.514C176.843 176.634 176.36 179.844 175.533 183.059V183.055ZM172.495 171.909C172.495 168.758 172.103 165.752 171.336 162.974L175.738 162.283C176.571 165.284 176.994 168.522 176.994 171.905H172.495V171.909ZM170.889 161.533C170.364 159.986 169.905 159.145 169.905 159.136L169.868 159.072C169.005 157.304 167.737 155.453 166.1 153.57L169.862 151.72C171.674 153.807 173.087 155.88 174.071 157.877C174.186 158.086 174.687 159.068 175.243 160.7L170.883 161.537L170.889 161.533ZM164.983 152.338C162.876 150.105 160.243 147.795 157.157 145.476L160.333 143.08C163.6 145.535 166.396 147.991 168.649 150.378L164.983 152.338ZM155.708 144.412C152.912 142.398 149.802 140.392 146.469 138.451L149.216 135.773C152.676 137.782 155.901 139.87 158.812 141.966L155.702 144.412H155.708Z" fill="white"/>
<path d="M172.61 147.291L165.188 141.702L168.371 139.306L170.412 140.843C170.635 140.17 170.841 139.497 171.028 138.824L175.43 139.524C174.959 141.202 174.379 142.903 173.703 144.585L172.616 147.286L172.61 147.291Z" fill="white"/>
<path d="M163.607 140.511L154.12 133.367L157.302 130.971L166.789 138.114L163.607 140.511ZM152.544 132.18L152.206 131.926C148.981 129.497 146.288 126.715 144.211 123.659L148.214 122.113C150.08 124.855 152.496 127.347 155.388 129.529L155.726 129.784L152.544 132.18ZM143.196 122.063C141.348 118.957 140.062 115.547 139.38 111.922L143.83 111.445C144.452 114.755 145.624 117.861 147.296 120.676L143.19 122.058L143.196 122.063ZM139.102 110.181C138.897 108.658 138.794 107.084 138.794 105.502C138.794 103.601 138.945 101.664 139.235 99.7359L143.703 100.118C143.432 101.919 143.293 103.728 143.293 105.497C143.293 106.966 143.389 108.426 143.577 109.835L139.102 110.176V110.181Z" fill="white"/>
<path d="M143.981 98.5082L139.53 98.0125C140.152 94.8613 140.943 92.8833 140.974 92.8014L141.837 90.6688L144.337 91.8692C144.434 91.9147 146.692 93.0015 149.995 94.8658L147.296 97.576C146.263 96.9939 145.339 96.4892 144.554 96.0754C144.367 96.762 144.168 97.5851 143.981 98.5173V98.5082Z" fill="white"/>
<path d="M175.877 137.783L171.451 137.187C172.139 134.277 172.49 131.38 172.49 128.579C172.49 128.115 172.478 127.651 172.46 127.187L176.952 127.083C176.97 127.579 176.982 128.083 176.982 128.583C176.982 131.585 176.608 134.681 175.871 137.787L175.877 137.783ZM172.351 125.523C171.856 120.244 170.201 117.165 170.183 117.138L170.153 117.074C169.978 116.715 169.778 116.347 169.561 115.979L173.679 114.614C173.927 115.037 174.156 115.46 174.356 115.874C174.579 116.292 176.306 119.666 176.838 125.287L172.351 125.528V125.523ZM168.625 114.528C166.85 112 164.211 109.312 160.781 106.548L164.066 104.238C167.767 107.221 170.636 110.149 172.598 112.946L168.625 114.528ZM159.229 105.334C156.276 103.083 152.864 100.818 149.084 98.6037L151.85 95.9344C155.781 98.2399 159.338 100.6 162.429 102.955L159.229 105.334Z" fill="white"/>
<path d="M172.929 104.902L165.508 99.313L168.684 96.9166L170.719 98.4491C170.937 97.7806 171.136 97.1122 171.311 96.4483L175.719 97.1122C175.272 98.7946 174.699 100.504 174.016 102.196L172.929 104.897V104.902Z" fill="white"/>
<path d="M164.1 98.2535L155.664 91.9056L158.841 89.5092L167.277 95.8571L164.1 98.2535ZM154.257 90.8461C151.19 88.527 148.81 85.8487 147.186 82.8839L151.341 81.5925C152.742 84.1435 154.795 86.4535 157.44 88.4588L154.251 90.8507L154.257 90.8461ZM146.437 81.3833C145.157 78.5413 144.505 75.4219 144.505 72.1161V71.9979L149.004 72.0115V72.1116C149.004 75.0491 149.571 77.8001 150.694 80.292L146.437 81.3788V81.3833ZM149.052 70.5928L144.559 70.4291C144.752 67.4552 145.441 64.354 146.606 61.2164L150.936 62.1304C149.861 65.0224 149.227 67.8735 149.052 70.5928Z" fill="white"/>
<path d="M151.492 60.7435L147.205 59.7204C148.467 56.7192 149.705 54.823 149.753 54.7457L151.07 52.7404L153.274 54.2455C153.358 54.3047 155.357 55.6688 158.177 57.9288L154.898 60.2479C154.029 59.5476 153.232 58.9383 152.561 58.429C152.229 59.0838 151.861 59.8614 151.486 60.7481L151.492 60.7435Z" fill="white"/>
<path d="M176.185 95.1887L171.746 94.6521C172.247 92.3148 172.501 89.9912 172.501 87.7403C172.501 86.3852 172.41 85.0393 172.229 83.7479L176.704 83.3932C176.903 84.8028 177 86.267 177 87.7403C177 90.1685 176.728 92.6786 176.191 95.1887H176.185ZM171.909 81.9562C171.305 79.1233 170.442 77.5273 170.436 77.5091L170.406 77.4454C169.554 75.7129 168.371 73.8667 166.879 71.9569L170.756 70.2381C172.374 72.3116 173.672 74.3306 174.615 76.2449C174.778 76.5451 175.708 78.373 176.354 81.4151L171.915 81.9517L171.909 81.9562ZM165.599 70.3972C163.177 67.5506 160.14 64.595 156.577 61.612L159.923 59.3475C163.648 62.4669 166.831 65.5681 169.385 68.5692L165.599 70.3972Z" fill="white"/>
<path d="M180.696 267.237L176.197 267.178C176.233 265.582 176.33 264.072 176.481 262.699H176.451L176.493 262.463C176.493 262.445 176.855 260.671 179.005 260.858C179.76 260.921 181.137 261.417 180.98 262.822C180.823 264.163 180.726 265.65 180.696 267.237Z" fill="white"/>
<path d="M207.941 322.022C204.034 319.971 200.423 317.598 197.204 314.96L200.513 312.669C203.515 315.124 206.878 317.334 210.513 319.244L207.941 322.022ZM195.622 313.619C192.597 310.959 189.873 307.994 187.53 304.806L191.461 303.165C193.66 306.152 196.208 308.931 199.034 311.418L195.616 313.619H195.622ZM186.413 303.233C184.324 300.168 182.518 296.849 181.051 293.361L185.338 292.338C186.727 295.644 188.436 298.79 190.411 301.687L186.413 303.233ZM180.369 291.66C179.1 288.359 178.104 284.867 177.404 281.275L181.854 280.783C182.524 284.221 183.478 287.563 184.692 290.719L180.375 291.66H180.369ZM177.09 279.524C176.51 276.027 176.202 272.471 176.178 268.942L180.677 268.929C180.695 272.316 180.991 275.741 181.552 279.101L177.09 279.524Z" fill="white"/>
<path d="M215.961 325.637C213.877 324.837 211.848 323.959 209.916 323.018L212.356 320.172C214.155 321.049 216.057 321.872 218.002 322.618L215.961 325.633V325.637Z" fill="white"/>
</svg>
